<svg width="16" height="16" viewBox="0 0 16 16" fill="none" xmlns="http://www.w3.org/2000/svg">
<circle cx="10.6667" cy="6.00001" r="0.666667" stroke="#6366F1" stroke-width="1.5" stroke-linecap="round" stroke-linejoin="round"/>
<path d="M4 7.33333L6.66667 6L9 8L8 9.33333" stroke="#6366F1" stroke-width="1.5" stroke-linecap="round" stroke-linejoin="round"/>
<path d="M2 11.1667C2.20753 11.2698 2.435 11.3267 2.66667 11.3333C3.19381 11.3444 3.69255 11.095 4 10.6667C4.30745 10.2383 4.80619 9.98894 5.33333 9.99999C5.86047 9.98894 6.35922 10.2383 6.66667 10.6667C6.97412 11.095 7.47286 11.3444 8 11.3333C8.52714 11.3444 9.02588 11.095 9.33333 10.6667C9.64078 10.2383 10.1395 9.98894 10.6667 9.99999C11.1938 9.98894 11.6925 10.2383 12 10.6667C12.3075 11.095 12.8062 11.3444 13.3333 11.3333C13.565 11.3267 13.7925 11.2698 14 11.1667" stroke="#6366F1" stroke-width="1.5" stroke-linecap="round" stroke-linejoin="round"/>
</svg>
